<?xml version="1.0" encoding="UTF-8"?>
<svg id="Layer_1" xmlns="http://www.w3.org/2000/svg" version="1.1" viewBox="0 0 851.52 866.19">
  <!-- Generator: Adobe Illustrator 29.8.1, SVG Export Plug-In . SVG Version: 2.1.1 Build 2)  -->
  <path d="M825.85,189.61c-19.87-16.68-44.64-23.46-70.95-21.62-12.2.81-22.12,6.21-27.32,18.19-6.05,14.24-5.38,28.46-.9,42.83.58,1.79,2.42,3.17,4.24,5.74,3-4.14,5.35-7.28,7.51-10.36,12.02-17.17,6.8-19.23,32.14-10.07,6.23,2.13,12.46,4.25,21.19,7.35-2.65-11.8-4.61-20.86-6.92-31.58,20.62,20.2,25.48,48.49,13.07,69.94-22.29,38.51-76.95,52.94-115.52,31.07-34.25-19.52-59.93-47.96-83.51-78.47-15.03-19.44-27.97-40.95-48.99-55.08-2.55-1.74-3.35-6.03-5.11-9.02,1.14-.77,2.03-1.65,3.17-2.42,45.7,15.79,66.64,57.65,94.65,93.84.08-2.8.27-4.64-.02-6.13-15-66.74-44.62-126.15-90.31-177.17-22.73-25.45-52.22-36.43-85.94-29.41-20.44,4.08-40.24,11.91-60.28,18.43-8.41,2.74-16.59,6.78-24.82,10.06,14.38-23.28,37.31-33.71,60.64-44.07-21.85-6.94-43.42-10.01-65.81-7.07-6.67.79-13.22,1.93-19.83,2.89-4.29,1.4-8.59,2.8-12.11,4.14-6.21,3.41-12.66,6.69-18.76,10.46-50.97,31.23-76.35,103.4-56.23,159.77,4.84,13.66,11.89,26.2,24.13,37.06,7.23-37.97,20.91-71.31,50-96.21,28.91-24.84,63.13-34.6,101.03-34.27-74.75,11.07-127.71,45.92-140.25,128.35,15.76-6.91,30.02-12.94,44.04-19.08.17.54.59,1.19.94,1.67-6.41,5.84-12.69,11.45-19.88,17.95,3.2,1.33,5.52,2.36,7.83,2.79,19.37,2.99,38.56,7.23,58.13,8.38,13.5.75,27.44-1.41,40.67-4.53,10.85-2.54,11.48-7.89,2.72-14.74-11.42-8.95-23.56-17.06-35.7-25.18-7.82-5.17-15.7-9.93-23.63-14.86,15.18-1.38,28.9,2.47,41.82,8.74,38.66,19.07,62.52,51.67,78.55,89.98,8.89,21.24,13.55,44.06,21.91,65.48,6.49,16.29,14.65,32.23,24.3,46.7,7.65,11.36,19.92,18.05,34.38,18.69,8.45.42,10.07-2.49,6.44-10.01-8.62-17.37-12.72-36.03-13.41-55.19-.29-8.81.9-17.9,1.38-26.76.77-.05,1.61.07,2.38.02,1.04,4.41,1.84,8.7,3.24,12.99,7.22,21.59,13.55,43.47,21.79,64.53,9.64,24.76,28.41,38.04,55.59,38.89,24.98.77,48.64-4.36,71.38-14.13,17.01-7.32,30-19.06,35.6-37.11,5.91-19.53,10.69-39.49,15.95-59.21.79-3.03,1.41-6,2.03-8.97.65.18,1.43.13,2.08.31.52,10.71.56,21.18,1.26,31.84.43,6.19,2,12.21,2.96,18.23,5.26-3.29,11.05-6.17,15.6-10.42,24.08-22.68,43.48-48.18,46.57-82.43,2.52-27.53-3.43-53.69-25.13-71.75Z"/>
  <path d="M173.73,303.92c-39.08,23.4-68.34,56.28-87.02,97.97-5.98,13.23-4.14,21.33,6.86,30.81,4.67,4.02,9.94,7.45,15.4,10.22,42.81,20.89,88.38,21.09,134.33,18.21,3.45-.33,7.88-4.35,9.93-7.78,12.82-20.79,39.68-33.1,64.64-29.35,23.54,3.62,41.49,21.71,47.79,48.35,5.95,25.57-1.32,43.96-24.58,60.04-8.07,5.6-11.03,12.3-9.25,21.41,3.1,15.61,5.67,31.39,10.08,46.78,8.19,28.2,19.48,54.99,37.28,78.68,3.77,4.91,6.98,6.24,13.19,2.83,28.31-15.74,56.8-30.95,90.41-37.73-11.18-9.42-21.42-17.17-30.46-25.5-16.91-15.47-31.06-33.42-33.87-56.64-1.63-14.11-.57-29.1,2.15-43.24,6.12-32.86,12.9-65.53,10.64-99.22-3.24-47.03-19.13-87.95-60.66-113.41-64.51-39.55-131.01-42.04-196.86-2.41Z"/>
  <path d="M377.11,712.38c-2.16,1.89-4.02,4.08-5.99,5.91-26.9,25.57-52.67,52.16-80.57,76.48-21.55,18.89-45.41,34.96-74.83,39.99-14.59,2.57-29.18,3.36-43.24-2.15-10.62-4.06-18.6-10.96-18.69-23.4-.05-17.79,9.8-31.29,21.57-46.2-3.6,12.65-7.36,22.97-9.28,33.49-3.59,19.37,3.73,28.47,23.28,30.81,3.33.5,6.66.4,9.99.31,22.62-1.03,42.73-9.75,59.37-23.68,37.29-31.33,73.57-63.91,109.86-96.5,9.52-8.44,9.07-12.25.99-21.89-30.5-36.57-45.2-78.68-45.81-126.16-.14-14.4-6.46-21.05-20.75-19.36-5.54.62-11.86,2.47-16.28,5.89-44.57,34.49-84.06,73.66-113.91,121.76-7.16,11.43-6.92,11.55,2.29,21.02,2.42,2.58,4.9,5.33,7.5,7.85,26.35,25.65,27.39,56.18,16.8,88.71-1.22,3.56-3.62,6.52-5.54,9.72-.47-.24-1.13-.42-1.48-.9.26-3.45.52-6.9.55-10.47.18-9.16.49-18.56-.1-27.67-.37-7.2-3.57-8.53-9.02-3.99-14.9,12.57-28.39,26.45-36.31,44.66-9.92,22.42-2.59,46.15,19.17,57.67,7.65,4.04,16.79,6.6,25.47,7.74,20.86,2.71,40.6-2.93,59.58-11.48,20.71-9.31,37.3-24.01,53.59-39.01,25.69-23.8,51.62-47.47,77.61-70.97,5.57-4.78,12.08-8.48,17.17-13.5,1.92-2.01,3.26-7,2.09-9.39-5.39-11.7-15.31-13.61-25.07-5.29Z"/>
  <path d="M148.51,680.54c12.36-31.33,31.94-57.49,55.72-79.87,23.66-22.14,49.15-42.31,74.89-64.14-21.25-16.04-33.23-38.25-32.31-67.04-31.15,4.6-61.26,5.69-91.04,1.14-30.19-4.62-58.08-14.93-82.21-35.57-1.68,2.13-2.76,3.07-3.66,4.56-16.21,29.22-33.13,58.07-48.16,87.89-8.51,17.02-14.06,35.84-20.37,54.12-3.52,10.45-.02,19.4,8.38,26.36,7.22,5.76,14.32,11.76,22.07,16.76,35.3,22.14,73.26,39.07,111.7,55.05,1.54.49,3.15.56,4.99.75ZM246.09,545.1c-4.31,3.18-7.52,3.64-11.54-.2-5.91-5.4-12.3-10.44-20.46-17.28,11.28-4.26,20.46-7.65,30.12-10.79,1.25-.41,3.38,1.27,4.56,2.47,1.3,1.56,1.94,3.52,2.7,5.25,5.86,12.54,5.8,12.36-5.38,20.55ZM217.37,484.21c.37-1.31,3.53-2.53,5.49-2.58,5.24-.32,10.53.13,16.66.12,1.25,8.1,2.21,15.31,3.64,23.94-10.43,2.6-20.8,5.39-33.38,8.69,2.7-11.17,4.91-20.79,7.59-30.17ZM197.5,576.95c-1.31.82-4.58.5-5.71-.52-9.39-9.41-18.49-19.11-28.94-29.95,11.99-4.5,22.55-8.53,33.35-12.44,1.19-.59,3.86,1.51,4.98,3.13,5.47,8.31,10.77,16.68,16.77,26-7.11,4.89-13.69,9.6-20.45,13.78ZM164.36,492.17c.13-1.43,2.88-3.31,4.61-3.48,6.31-.67,12.86-1.22,19.16-.7,2.02.13,4.73,3.6,5.02,5.69,1.06,9.35,1.41,18.93,2.11,29.58-12.22,3.19-23.67,6.32-36.84,10.21,2.07-14.92,3.71-28.12,5.94-41.31ZM175.28,597.43c-12.13,16.22-12.2,16.63-28.47,4.91-14.62-10.28-28.65-21.15-42.97-31.72.12-.83.37-1.9.5-2.73,10.2-3.91,20.35-8.01,30.61-11.74,1.79-.58,5.18.1,6.59,1.42,11.17,10.02,22.11,20.5,33.28,30.52,3.66,3.36,3.11,5.91.47,9.34ZM118.27,480.65c8.14,1.9,15.51,3.26,22.51,5.34,1.54.49,3.42,3.83,3.17,5.5-2.61,15.09-5.57,30.3-8.83,45.21-.49,2.14-3.01,4.74-5.16,5.44-10.08,3.08-20.57,5.51-30.76,8.23-.83-.72-1.78-1.2-2.55-1.74,7-22.26,14-44.52,21.6-67.97ZM68.51,466.97c2.65-4.03,5.45-4.54,9.84-2.61,7.89,3.57,16.08,6.84,24.97,10.47-5.85,11.8-11.04,20.81-14.44,30.42-5.83,16.14-10.4,32.47-15.64,48.62-.67,2.2-2.24,5.28-4.21,5.92-14.37,5.07-29.1,9.67-46.1,15.2,11.94-39.3,24.1-75.51,45.57-108.02ZM130.38,652.8c-11.1-4.3-22.85-8.19-32.98-14.39-21.15-12.7-41.4-26.89-61.89-40.6-1.78-1.2-3.13-2.94-5.91-5.4,16.28-5.3,31.31-10.19,46.39-14.9,1.25-.41,3.74.56,4.93,1.76,18.18,20,42.26,31.36,65.49,43.78.95.48,1.96,1.14,5.87,3.43-4.82,8.3-9.34,16.3-14.63,23.75-1.2,1.78-5.44,3.35-7.28,2.57Z"/>
  <path d="M499.43,662.08c-23.89-3.5-45.72,3.6-66.38,14.28-11.47,6.11-22.35,13.41-34.6,20.76,5.32,5.39,9.46,8.99,13.3,12.89,3.96,4.25,7.23,3.38,12.37.92,14.51-7.1,29.32-14.49,44.81-18.54,13.29-3.54,27.74-2.3,41.68-3.87,2.68-.28,7.4-2.8,7.59-4.65.91-10.58-8.19-20.29-18.77-21.79Z"/>
  <path d="M293.59,265.51c7.1-2.51,9.04-7.49,6.13-16.44s-8.4-14.87-12.28-13.41c-8.47,3.15-17.49,16.77-15.27,22.98,2.22,6.2,13.26,9.73,21.43,6.87Z"/>
  <path d="M291.01,486.16c2.39,6.74,9.33,10.42,16,8.44,6.86-2.03,11.02-9.92,8.8-16.72-2.03-6.86-9.68-10.9-16.66-8.63s-10.54,9.56-8.15,16.9Z"/>
  <path d="M318.92,502.6c1.27,5.72,2.06,11.79,4.4,17.17,1.06,2.03,5.7,2.3,8.84,3.45.97-3.09,3.74-7.35,2.56-9.14-3.24-5.08-8.27-8.98-12.46-13.36-1.02.53-2.21,1.11-3.35,1.88Z"/>
  <path d="M272.07,506.97c-1.62,1.71-.28,6.42-.37,9.81,3.45-.33,8.74.72,9.94-1.06,3.42-4.68,4.84-10.68,7.02-16.13-.83-.72-1.83-1.38-2.66-2.1-4.72,3.12-10.09,5.46-13.93,9.48Z"/>
  <path d="M332.54,452.66c-4.25,3.96-6.79,9.53-10.16,14.39.71.96,1.41,1.91,2.3,2.81,5.37-2.34,11.33-4.08,16-7.38,1.91-1.41,1.59-6.06,2.15-9.21-3.63-.2-8.61-2.14-10.29-.61Z"/>
  <path d="M256.01,480.74c2.36,2.4,5.01,6.88,7.33,6.72,5.42-.38,10.85-3.14,16.22-4.88,0-1.19.08-2.2.38-3.09-5.7-1.71-11.27-4.24-17.04-4.94-2.08-.31-4.61,4.07-6.89,6.2Z"/>
  <path d="M315.64,437.19c-3.09-.38-8.7,2.44-9.49,4.87-1.64,5.28-.85,11.36-1.01,16.95.95.48,2.02.73,2.91,1.03,3.48-4.5,7.44-8.75,10.45-13.49,2.35-3.73,2.14-8.61-2.85-9.36Z"/>
  <path d="M333.92,484.86c-.37,1.31-.79,2.43-1.28,3.98,4.86,2.77,9.41,6.43,14.58,8.31,2.25.85,5.85-2.1,8.83-3.27-1.88-3.35-3.33-8.41-5.94-9.15-4.99-1.34-10.71-.08-16.18.12Z"/>
  <path d="M295.63,522.84c-1.04,4.1-.42,9.04,5.41,9.32,6.19.16,8.77-4.04,7.8-9.46-.8-4.88-2.91-9.54-4.48-14.37-.83-.12-1.72-.43-2.68-.32-2.18,4.86-4.77,9.66-6.05,14.83Z"/>
  <path d="M272.97,447.12c.15,3.51-1.01,8.44.94,10.18,4.2,3.78,9.66,5.96,14.69,8.67.78-.65,1.68-1.54,2.34-2.54-2.64-5.08-4.5-10.8-8.1-15.17-1.41-1.91-6.42-.88-9.87-1.14Z"/>
</svg>