<?xml version="1.0" encoding="utf-8"?>
<!-- Generator: Adobe Illustrator 28.3.0, SVG Export Plug-In . SVG Version: 6.00 Build 0)  -->
<svg version="1.1" id="Layer_1" xmlns="http://www.w3.org/2000/svg" xmlns:xlink="http://www.w3.org/1999/xlink" x="0px" y="0px"
	 viewBox="0 0 1728 1152" style="enable-background:new 0 0 1728 1152;" xml:space="preserve">
<g>
	<path d="M901.1,209c3.5,0.6,7,1.1,10.5,1.8c11.8,2.2,22.2,7.3,32.1,14.4c-13.5,1.4-26.8,2.9-37.9,12.3c4.7-0.3,9.5-1,14.2-1
		c11.2,0,22.5-0.7,33.5,0.6c18.2,2,31.3,12.4,38.6,29c14.7,33.3,19.9,68.2,16.5,104.4c-0.1,0.8-0.5,1.7-1,3.1
		c-8.2-22.9-11.9-47.5-32.4-63c-0.7,0.2-1.3,0.5-2,0.7c0.4,1.8,0.1,4.1,1.1,5.4c8.3,10.6,11.3,23.6,15.7,35.9
		c6.9,19.3,15.2,37.9,29.3,53.4c15.9,17.4,45.9,19.1,63.5,3.3c9.8-8.8,12-23.9,4.9-37.5c-0.6,5.8-1.1,10.7-1.7,17.1
		c-3.9-3-6.7-5.1-9.5-7.2c-11.3-8.8-9-6.9-17.9-0.2c-1.6,1.2-3.3,2.4-5.5,4c-0.5-1.6-1.2-2.6-1.2-3.6c0.1-8,2.1-15.3,7.5-21.5
		c4.6-5.2,10.5-6.3,16.8-4.7c13.6,3.4,25,10.9,32.3,22.6c8,12.7,6.7,26.9,0.9,40.4c-7.2,16.8-21.2,26.5-37.1,34
		c-3,1.4-6.4,1.9-9.6,2.7c0.5-3.2,0.7-6.5,1.5-9.7c1.4-5.5,3.1-10.8,4.6-16.3c-0.3-0.2-0.7-0.3-1-0.5c-0.8,1.4-1.6,2.8-2.5,4.2
		c-5.9,9.1-11.6,18.4-17.8,27.3c-5.8,8.2-14.3,12-24.1,12.9c-13.1,1.2-25.9-0.1-38.4-4.6c-13.6-4.9-20.9-14.7-21.7-28.8
		c-0.7-12-0.3-24.1-0.4-36.2c0-2.4,0.3-4.7,0.5-7.1c-0.4-0.1-0.8-0.3-1.2-0.4c-1.7,4.4-3.8,8.8-5.1,13.3c-2.8,9.8-3.8,19.9-2.3,30.1
		c0.6,4.4-0.7,5.6-4.9,4c-7.2-2.7-12.3-8.1-14.3-15.1c-2.5-8.9-4-18.3-4.6-27.6c-0.7-12.2,0.7-24.5-0.3-36.7
		c-1.8-22-8.5-42.4-24.9-58.4c-5.5-5.3-11.8-9.5-19.7-11.3c3.2,3.8,6.4,7.5,9.5,11.4c4.8,6.1,9.6,12.2,13.9,18.6
		c3.3,4.9,2.1,7.5-3.8,7c-7.2-0.6-14.6-1.8-21.3-4.4c-9.7-3.8-18.7-9.1-28-13.8c-1.1-0.6-2.1-1.5-3.5-2.7c4.7-2.1,8.8-3.9,13-5.8
		c-0.1-0.3-0.2-0.7-0.2-1c-8.1,0.8-16.3,1.5-25.4,2.4c19.9-39.6,52.4-48.5,92-41.8c-19.1-6.4-38-7.1-56.7,0.7
		c-18.8,7.8-31.2,22.4-41.1,40.4c-4.4-7.5-5.9-15-6.1-22.7c-0.9-31.8,23.8-64.1,54.7-71.5c3.7-0.9,7.5-1.5,11.2-2.2
		C896.3,209,898.7,209,901.1,209z"/>
	<path d="M1603.3,790.5c-5.1,13.8-10.2,27.6-15.1,41.5c-0.9,2.4-1.9,3.5-4.7,3.5c-36-0.1-72-0.1-108-0.1c-0.9,0-1.8-0.1-2.9-0.2
		c0-5,0-9.8,0-15.4c3,0,6.1,0,9.2,0c5.5-0.1,6.6-1.2,6.6-7.1c0-17.9,0-35.8,0-53.7c0-12.1,0-24.2,0-36.3c0-6-1.1-7-7.1-7.1
		c-2.8,0-5.6,0-8.8,0c0-5.4,0-10.3,0-15.6c1.5-0.1,3-0.2,4.4-0.2c33.8,0,67.5,0.1,101.3-0.1c3.7,0,5.1,1.2,6.3,4.6
		c3.9,11.7,8.2,23.3,12.6,35.5c-5.1,1.9-10,3.8-15.4,5.9c-0.8-2-1.6-3.9-2.4-5.8c-5.1-13.2-14.1-21.3-28.8-21.6
		c-12.2-0.2-24.4,0-36.9,0c0,12.9,0,25.5,0,38.9c6-0.3,11.8-0.2,17.5-1c5.8-0.8,8.9-5,9.4-10.9c0.3-3.8,0.4-7.7,0.6-11.7
		c5.6,0,10.9,0,16.5,0c0,21.4,0,42.5,0,63.8c-5.5,0-10.7,0-16.4,0c-0.2-4.2-0.3-8.5-0.6-12.7c-0.5-6.7-3.6-10.1-10.3-10.6
		c-5.3-0.4-10.7-0.1-16.5-0.1c0,14.3,0,28.7,0,43.3c0.7,0.2,1.4,0.5,2.1,0.5c11.5-0.1,23,0.2,34.5-0.6c14.2-1.1,24.4-8.9,31.3-21.1
		c2.2-3.9,4-7.9,6.1-12c5.2,1.6,10.3,3.2,15.4,4.8C1603.3,789.3,1603.3,789.9,1603.3,790.5z"/>
	<path d="M860.3,551.7c-18.1-2.1-35,0.9-51.9,4.2c-3.7,0.7-5.1-0.5-6.2-3.6c-5.1-14.9-6.4-30.3-5.9-45.9c0.3-8.5,1.6-16.9,2.6-25.3
		c0.6-4.9,3.2-7.8,8.2-9.3c14.4-4.3,21.1-12.4,22.3-26.3c1.2-14.5-4.9-26.6-16.2-32.3c-12-6-27.6-4.2-37.5,4.2
		c-1.6,1.4-4.5,2.7-6.3,2.3c-23.7-6.1-46.7-13.7-64.9-31.3c-2.3-2.3-4.4-4.9-6.1-7.7c-4-6.6-3.6-11,1.6-16.7
		c16.3-18,36.5-29.8,60.1-35.2c39.8-9.2,73,3,99.1,33.6c16.8,19.7,18.1,43,12,67.3c-4.4,17.4-13.2,32.8-21.7,48.4
		c-3.7,6.7-6.7,14.1-8.2,21.5c-2.4,12.2,1.8,23.6,7.8,34.2C852.3,539.5,856.2,545.1,860.3,551.7z"/>
	<path d="M447.6,742.5c-2.9,7.8-5.6,15.3-8.4,22.8c-8.1,22.1-16.2,44.2-24.2,66.4c-1,2.9-2.3,3.8-5.4,3.8
		c-10.9-0.1-10.9,0-14.8-10.3c-9.6-25.7-19.2-51.4-28.7-77.1c-0.5-1.2-1-2.5-2.2-3.8c-0.1,1.2-0.4,2.3-0.4,3.5c0,20.5,0,40.9,0,61.4
		c0,1.5,0.3,3,0.3,4.5c-0.1,3.9,2.1,5.8,5.7,6c3.4,0.2,6.8,0,10.5,0c0,5.4,0,10.2,0,15.4c-17.4,0-34.6,0-52.3,0c0-4.8,0-9.6,0-15.3
		c2.9,0,6,0.1,9,0c5.9-0.3,7.5-1.9,7.5-7.7c0.1-30.2,0-60.3,0.1-90.5c0-4.5-2.2-6.1-6.3-6c-3.4,0.1-6.8,0-10.4,0
		c0-5.4,0-10.3,0-15.4c1.2-0.1,2.3-0.4,3.4-0.4c13.4,0,26.8,0.1,40.1-0.1c2.7,0,3.8,0.9,4.7,3.4c10.5,28.4,21.1,56.7,31.7,85
		c0.5,1.3,0.9,2.5,1.8,4.7c0.9-2.1,1.5-3.4,2-4.8c10.1-27.7,20.3-55.4,30.2-83.2c1.5-4.2,3.5-5.5,7.7-5.2c2.2,0.2,4.6-0.8,6.9-1.3
		c1.1,0.4,2.7,1.4,4.3,1.4c9.4,0.1,18.8,0.1,28.6,0.1c0,5.3,0,10.2,0,15.8c-3.1,0-6.2,0.1-9.3,0c-3.9-0.2-5.8,1.6-6,5.5
		c-0.1,1.6-0.2,3.3-0.2,4.9c0,27.6,0,55.2,0,82.9c0,0.4,0,0.9,0,1.3c0.1,8.9,0.9,9.6,9.8,9.6c1.8,0,3.6,0,5.7,0c0,5.1,0,10,0,15.2
		c-18.6,0-37.2,0-56.1,0c0-4.8,0-9.6,0-15.2c3.2,0,6.4,0.1,9.6,0c3.7-0.1,5.8-1.8,5.8-5.8c0-23.4,0-46.9,0-70.3
		C448.4,743.5,448.1,743.3,447.6,742.5z"/>
	<path d="M689.5,580.3c1.5-1.3,3.2-2.4,4.4-4c10.7-14.7,15.2-30.3,6.1-47.6c-0.9-1.7-1.7-3.5-2.5-5.2c-3.1-6.3-3.2-6.4,2.3-11
		c23-19.4,49.4-32.7,77.6-42.8c2.8-1,6.3-0.9,9.2-0.3c7.5,1.5,9.6,5.9,7.3,13.2c-7.5,24.1-7,47.8,2.4,71.3c2.5,6.2,2.1,8.2-4.1,10.9
		c-23.7,10.5-47.4,21-71.4,30.7c-10.7,4.3-22.3,5.4-33.9,2.2c-1.7-0.5-3.4-1-5-1.8c-9.5-4.4-11.7-10.2-6.7-19.4
		c2.7-5,6.3-9.6,10.2-15.4c-8.4,5.6-15.6,10.8-18.5,19.8c-2,6.3,0.9,11.1,5.6,14.9c6.2,5.1,13.7,7.1,21.5,8.2
		c15.7,2.3,30.4-1.9,44.4-7.9c18.1-7.7,35.5-16.9,53.3-25.4c1.3-0.6,2.6-1.4,4-2c6.3-2.6,11,0,11.8,6.8c0.2,1.4-1.3,3.7-2.6,4.4
		c-3.4,1.7-7.3,2.5-10.9,4c-17,7.6-34,15.3-50.9,23.1c-10.7,4.9-21.5,9.6-33.5,10.9c-11,1.2-21.9,0.8-32-4c-4.2-2-8.4-4.8-11.6-8.1
		c-9.1-9.4-8.9-22.6-0.2-32.3c7-7.9,16.1-12.7,25.7-16.6c3.5-1.4,4.9-0.2,3.9,3.5c-1.2,4.7-2.9,9.4-4.5,14c-0.6,1.8-1.3,3.5-2,5.2
		C689,579.9,689.3,580.1,689.5,580.3z"/>
	<path d="M818.1,819.9c3.3,0,6.4,0,9.5,0c4.1,0,6.3-1.9,6.3-6.3c-0.1-30.7-0.1-61.5-0.1-92.2c0-4.3-1.8-5.9-5.9-5.8
		c-3.2,0.1-6.5,0-9.9,0c0-5.5,0-10.3,0-15.5c0.8-0.1,1.5-0.4,2.2-0.4c26.1,0.1,52.3,0,78.4,0.4c10.7,0.1,21.1,1.8,30.3,8
		c19,12.8,19.8,38.5,1.6,52.3c-1.2,0.9-2.4,1.7-3.8,2.8c3.3,2.1,6.6,3.8,9.4,6.1c17.5,14.5,16.6,40.9-1.9,55.1
		c-9.9,7.6-21.6,10.3-33.6,10.5c-27,0.5-54.1,0.3-81.1,0.4c-0.4,0-0.8-0.3-1.4-0.5C818.1,830.1,818.1,825.2,818.1,819.9z
		 M859.1,772.7c0,14.9,0.1,28.2,0,41.5c0,2.6,1.1,3.5,3.4,3.4c13.5-0.4,27.1-0.2,40.6-1.5c10.7-1,18-10.2,18.4-20.5
		c0.3-9.5-6.1-18.6-16.5-19.9C890,773.9,874.8,773.7,859.1,772.7z M859.5,718.7c0,12.2,0,24.9,0,38.6c13-0.6,25.8-0.9,38.5-1.8
		c3-0.2,6.1-1.6,8.8-3c7.5-3.9,11.1-12.4,9.3-20.9c-1.5-6.9-7.8-12.6-15.9-12.8C886.8,718.4,873.4,718.7,859.5,718.7z"/>
	<path d="M500.5,715.7c0-5.6,0-10.5,0-15.6c1.7-0.1,3.1-0.2,4.6-0.2c33.8,0,67.6,0.1,101.3-0.1c3.7,0,5.1,1.1,6.2,4.5
		c3.9,11.7,8.3,23.3,12.6,35.5c-5.1,2-10.1,3.9-15.4,5.9c-0.8-2-1.6-3.9-2.3-5.8c-5.2-13.1-14.1-21.3-28.8-21.6
		c-12.2-0.2-24.4,0-37,0c0,12.8,0,25.4,0,39c6.3-0.4,12.5-0.4,18.6-1.4c5-0.9,8-4.5,8.4-9.8c0.3-4,0.5-8,0.8-12.4
		c5.4,0,10.8,0,16.5,0c0,21.2,0,42.2,0,63.5c-5.5,0-10.9,0-16.5,0c-0.2-4.6-0.2-9.1-0.7-13.5c-0.6-5.7-3.8-9.1-9.4-9.6
		c-5.8-0.4-11.6-0.1-17.6-0.1c0,14.3,0,28.5,0,42.7c0.4,0.3,0.6,0.6,0.8,0.6c14.2,0.6,28.4,1.7,42.4-1.5
		c13.5-3.1,21.6-12.6,27.4-24.4c3.8-7.7,3.8-7.7,12.1-4.8c2.2,0.8,4.4,1.6,7.1,2.5c-3.9,10.9-7.6,21.5-11.4,32.1
		c-1.7,4.6-2.3,10.9-5.6,13.3c-3.3,2.4-9.5,0.8-14.4,0.8c-31.4,0-62.8,0-94.2,0c-1.7,0-3.5,0-5.4,0c0-5.3,0-10.2,0-15.5
		c3,0,5.8,0,8.6,0c6.3,0,7.3-1,7.3-7.2c0-22,0-43.9,0-65.9c0-8.4-0.1-16.7,0-25.1c0.1-4.2-1.8-6.1-5.9-6
		C507.3,715.7,504.1,715.7,500.5,715.7z"/>
	<path d="M1341.4,778.2c0-5.3,0-10,0-15.1c19.7,0,39.3,0,59.3,0c0,4.9,0,9.8,0,15.3c-2.7,0-5.2-0.1-7.7,0c-6.6,0.2-7.5,1-7.5,7.5
		c0,4.9,0,9.9,0,14.8c0,11.3,0,22.7,0,34.7c-4.9,0-9.6,0.2-14.3-0.1c-1-0.1-2.1-1.8-2.7-2.9c-1-1.6-1.6-3.5-2.5-5.6
		c-19.9,10.6-40.5,14.8-62.2,7.4c-14-4.8-24.9-14-33.1-26.2c-17-25.5-15.1-62.2,3.9-85.4c20.6-25.1,54.3-31.9,83.2-17
		c2-9.1,9.1-4.6,14.9-5.9c4.1,15.4,8.1,30.6,12.3,46.2c-5.2,1.8-10.1,3.5-14.5,5c-4.5-7.3-8.1-14.7-13.1-21.1
		c-14.6-18.8-41.3-19.1-56.9-1.1c-20,23.1-17.9,62.3,4.4,81c14.4,12.1,34.1,13.1,49,2.7c4.2-3,6.6-6.8,6.6-12
		c0-4.8,0.1-9.6-0.1-14.3c-0.3-5.1-2.2-6.9-7.3-7.1C1349.3,778.5,1345.5,778.4,1341.4,778.2z"/>
	<path d="M746.5,745.9c-3.9,1.2-7.1,2-10.1,3.2c-3.9,1.6-5.9,0.9-7.8-3.2c-4.9-10.3-12.1-18.8-22-24.8c-9.6-5.8-19.8-7.1-30.5-3.4
		c-2.3,0.8-4.7,2.1-6.6,3.7c-7.2,5.9-7.3,14.7,0.4,20c4.5,3.1,9.8,5.1,14.9,6.9c13.5,4.7,27.3,8.5,40.7,13.6
		c14.9,5.6,24.5,16.1,24.8,32.8c0.4,17.1-8.7,29.1-23.3,36.4c-20.3,10.1-40.9,9.5-60.7-2.4c-1-0.6-2-1.3-3-1.9
		c-0.1-0.1-0.3-0.1-0.2-0.1c-1.9,2.9-3.2,7-5.9,8.4c-2.8,1.4-7,0.3-10.8,0.3c-3.3-17.6-6.5-34.8-9.8-52.7c5.2-1.1,10.3-2.2,14.2-3
		c5.6,8.7,9.8,17.5,15.9,24.5c10.6,12.2,24.4,18.2,40.9,13.9c4.8-1.3,9.6-4.3,13.3-7.7c7.7-6.9,6.4-18-2.6-23
		c-5.8-3.2-12.2-5.4-18.6-7.5c-10.7-3.6-21.8-6.2-32.4-10.2c-6-2.3-12-5.8-16.6-10.2c-16.5-15.4-13.3-40.9,6.6-53
		c19.1-11.6,39-11.7,59-2.1c1.1,0.5,2.1,1.1,3.1,1.7c4.1-6.7,4.1-6.7,15.6-6C738.9,715.1,742.6,730.3,746.5,745.9z"/>
	<path d="M1029.9,697.7c38.5,0,67.5,29.8,67.5,69.5c0,41.5-28.7,70.6-69.8,70.5c-39.5,0-68.6-29.5-68.9-69.8
		C958.4,727.9,988.9,697.7,1029.9,697.7z M986.5,767.2c0.4,14.5,2.3,25.1,8.3,34.6c7.9,12.5,19.2,19,34,18.9
		c15.1-0.2,26.1-7.7,32.8-21c10.5-20.9,10.8-42.2,1.2-63.4c-10.2-22.4-42.1-28-60.2-10.9C989.5,737.6,986.7,753.7,986.5,767.2z"/>
	<path d="M1108.7,767.8c0.3-31.9,18.4-57.1,48.2-66.7c29.6-9.5,60.3,0.3,78.2,24.7c22.8,31.1,17.1,96-38.1,109.7
		c-37.5,9.3-72-7.6-84.3-43.9c-1-3.1-1.9-6.3-2.4-9.5C1109.4,777.3,1109.1,772.5,1108.7,767.8z M1135.7,768.6
		c1.6,8.1,2.3,16.6,5.1,24.3c6.1,16.9,18.2,27.2,36.8,27.7c17.4,0.5,28.9-8.8,35.7-24.2c8.5-19.1,8-38.3,0.8-57.8
		c-11.8-31.8-53-26.9-66.1-8.5C1139.8,741.7,1136.7,754.5,1135.7,768.6z"/>
	<path d="M325.9,820.2c0,5,0,9.7,0,14.8c-17.6,0-35.1,0-53,0c0-4.7,0-9.6,0-14.8c3-0.2,5.9-0.6,8.8-0.6c2.8,0,3.9-1,2.9-3.8
		c-2.9-8.5-5.7-17-8.7-25.4c-0.4-1-2.1-2.1-3.2-2.1c-11.8-0.2-23.6-0.2-35.4,0c-1.2,0-2.9,1.4-3.4,2.6c-3.1,7.9-5.8,16-8.7,23.9
		c-1.4,3.7,0.2,5,3.6,5c2.7,0,5.3,0,8.3,0c0,5.2,0,10.1,0,15.2c-15.2,0-30.3,0-45.8,0c0-4.8,0-9.6,0-14.8c0.6-0.1,1.3-0.5,2-0.4
		c7.7,1.1,11.2-3.1,13.7-9.7c13.1-35.2,26.5-70.3,39.6-105.5c1.4-3.8,3.2-5.7,7.3-4.9c1.2,0.2,2.4,0,3.6,0c11.7,0,11.7,0,15.9,11.2
		c12.3,33,24.6,65.9,36.7,98.9c2.5,6.8,6,11.3,14,10C324.5,819.9,325,820.1,325.9,820.2z M268.9,771c-4.6-13-9.1-25.3-13.9-38.7
		c-4.9,13.5-9.3,25.9-13.9,38.7C250.6,771,259.3,771,268.9,771z"/>
	<path d="M687.9,378.6c8.8,14.4,21.2,24.2,35.7,31.5c14.3,7.2,29.7,11.6,46.2,14.4c-5.2,14.4-2.8,27.6,5.3,39.2
		c-16.6,6.8-32.8,12.8-48.4,20.1c-15.7,7.4-29.9,17.4-41.3,31.2c-0.9-0.4-1.7-0.7-2.4-1.2c-16.8-14.4-33.2-29.2-47.4-46.2
		c-3.1-3.8-5.7-8-8.4-12.1c-3.1-4.9-3.4-10,0.1-14.7c6.2-8.2,12.1-16.8,19.2-24c12.5-12.6,25.8-24.4,38.8-36.5
		C686,379.7,686.7,379.4,687.9,378.6z M639.3,441c9.5,0,17.7,0.1,25.8-0.1c1.1,0,2.4-1.3,3.1-2.3c5.3-7.3,10.3-14.8,15.9-22
		c3.3-4.3,7.4-8,12.3-13c-3.9-3.3-7.5-6.3-10.9-9.4c-1.9-1.7-3.4-1.9-5.4-0.3C663.9,406.8,651.8,423.1,639.3,441z M696.2,488.3
		c-1.6-1.8-2-2.3-2.4-2.7c-9.7-10.1-20-19.8-25.9-32.9c-0.4-0.8-1.5-1.7-2.2-1.7c-8.4-0.1-16.8-0.1-25.9-0.1c1,1.7,1.4,2.8,2.1,3.7
		c8.1,10.3,16,20.8,24.6,30.7c4.1,4.8,9.4,8.7,14.3,12.7c0.8,0.7,3.2,0.6,4.1-0.1C688.8,495,692.4,491.7,696.2,488.3z M681.6,450.8
		c-0.2,0.4-0.5,0.9-0.7,1.3c5.5,7.7,10.8,15.5,16.5,23.1c6.3,8.6,6.4,8.4,15.2,2.2c1.9-1.3,2.6-2.5,1.3-4.8c-4-6.9-7.8-14-11.8-20.9
		c-0.5-0.9-2.1-1.8-3.1-1.8C693.2,450.1,687.4,450.5,681.6,450.8z M680.9,439.8c0.3,0.4,0.7,0.8,1,1.3c5.6,0.3,11.3,0.8,16.9,0.9
		c1.2,0,2.9-0.9,3.5-1.9c4.1-7,8.1-14.2,11.9-21.4c0.4-0.8,0-2.8-0.7-3.3c-3.2-2.2-6.7-4.1-10.5-6.4
		C695.3,419.6,688.1,429.7,680.9,439.8z M714.7,449.6c3.5,7.2,6.5,13.6,9.7,19.9c0.4,0.7,2,1.4,2.8,1.2c4.1-1,8.2-2.3,12.6-3.6
		c-1.5-5.7-2.8-10.8-4.2-15.9c-0.3-1-1.3-2.5-2-2.4C727.5,449,721.5,449.3,714.7,449.6z M734.9,443.2c1.4-5.5,2.8-10.4,3.8-15.3
		c0.2-1.1-0.6-3.3-1.6-3.7c-3.1-1.3-6.5-2.1-9.8-2.8c-0.9-0.2-2.6,0.3-2.9,1c-3.3,6.3-6.3,12.7-9.8,19.9
		C721.9,442.5,728.2,442.8,734.9,443.2z M764.1,429.5c-3.1-1-5.7-2.1-8.4-2.8c-1-0.3-2.8-0.2-3.2,0.4c-2.9,4.3-5.6,8.8-8.8,14
		c6.9,0.4,12.6,0.7,18.3,1.1C762.7,437.6,763.4,433.8,764.1,429.5z M743.7,448.5c3,4.8,5.4,8.4,7.5,12.1c1.4,2.6,3.1,2.9,5.8,2
		c7-2.3,7-2.2,6.1-9.5c-0.1-1-0.1-2.1-0.5-3.1c-0.4-0.8-1.2-2-1.9-2C755.3,448,750.1,448.2,743.7,448.5z"/>
	<path d="M134.8,715.7c0-5.5,0-10.3,0-15.5c18.9,0,37.6,0,56.6,0c0,5,0,9.9,0,15.3c-1.7,0.1-3.4,0.2-5.1,0.2c-10.7,0-10.7,0-10.7,11
		c0,21.6,0.1,43.3,0,64.9c-0.1,21.5-9.2,35.4-28,42.4c-13.3,4.9-26.9,5.3-40.4,1.3c-9.6-2.8-17.4-8.4-23.1-16.7
		c-5.5-8-7.6-16.9-5.1-26.4c1.5-5.5,5-9.5,10.8-10.7c4.9-1,9.7-0.3,12.3,4.1c1.9,3.3,3.1,7.5,2.9,11.3c-0.4,6.5-2.8,13,3.9,18
		c7.4,5.5,15.5,5.9,23.9,3.8c11.5-2.9,17.1-9.9,17.6-22.3c0.4-11.9,0.2-23.9,0.2-35.8c0-12.2,0.1-24.5,0-36.7c-0.1-7-1.2-8-8.1-8.1
		C139.9,715.6,137.4,715.7,134.8,715.7z"/>
	<path d="M1463.3,700.2c0,5.1,0,10,0,15.5c-3.1,0-6.1,0-9,0c-3.9,0-6.2,1.7-6.3,5.8c-0.1,2.2-0.3,4.5-0.3,6.7c0,26.7,0,53.4,0,80.1
		c0,1.3,0,2.7,0,4c0.4,6.4,1.6,7.4,7.9,7.5c2.4,0,4.8,0,7.5,0c0,5.1,0,9.9,0,15.1c-18.4,0-37,0-55.9,0c0-4.7,0-9.7,0-15.2
		c3.3,0,6.5,0.1,9.8,0c3.3-0.1,5.3-1.7,5.5-5.2c0.1-2.4,0.4-4.8,0.4-7.1c0-25.8,0-51.6,0-77.5c0-13.8,0-13.8-13.5-14.4
		c-0.7,0-1.4-0.2-2.3-0.4c0-5,0-9.9,0-15.1C1425.7,700.2,1444.3,700.2,1463.3,700.2z"/>
	<path d="M809,564.5c7.4-1.7,14.1-3.6,20.9-4.8c12.2-2,24.4-2,35.9,3.7c5.1,2.5,8.1,8.9,5.9,14.1c-0.4,0.9-3.2,1.4-4.6,1.1
		c-7.3-1.5-14.4-4.5-21.7-4.9c-8.5-0.5-17.2,0.8-25.7,2c-3,0.4-4.8,0.3-6.1-2.5C812.3,570.6,810.8,568.1,809,564.5z"/>
	<path d="M832.8,321.8c0,5-1.8,7.2-5.8,7.3c-4.6,0.1-9.6-3.5-9.7-7c-0.1-3.5,6.7-8.9,11.5-9.1C831,312.9,832.8,316.8,832.8,321.8z"
		/>
	<path d="M796.3,433c3.9,0,7.1,3.3,7,7.1c0,3.8-3.4,7.1-7.2,7c-3.7-0.1-6.6-3.1-6.7-6.9C789.4,436.1,792.3,433,796.3,433z"/>
	<path d="M802.8,452.7c1.4,2.9,3.3,5.7,4.1,8.8c0.3,1.1-1.8,2.8-2.8,4.2c-1.4-1.1-3.7-2-3.9-3.2c-0.3-3.1,0.3-6.3,0.6-9.4
		C801.5,452.9,802.2,452.8,802.8,452.7z"/>
	<path d="M786,446.6c-2,2.4-3.7,5.2-6.2,7c-0.9,0.7-3.4-0.7-5.2-1.1c0.6-1.7,0.7-4.3,1.8-4.9c2.6-1.4,5.7-1.7,8.6-2.5
		C785.3,445.6,785.7,446.1,786,446.6z"/>
	<path d="M808.4,435.7c2.5-1.9,4.7-4.3,7.5-5.6c1.1-0.5,3.3,1.3,5.1,2c-0.8,1.5-1.4,3.9-2.6,4.3c-2.9,0.9-6.2,0.8-9.3,1.1
		C808.8,436.9,808.6,436.3,808.4,435.7z"/>
	<path d="M784.2,436.5c-3,0-6.2,0.5-9-0.2c-1.2-0.3-1.8-3-2.6-4.6c1.5-0.7,3.5-2.5,4.5-2c2.8,1.3,5.2,3.5,7.8,5.3
		C784.6,435.4,784.4,435.9,784.2,436.5z"/>
	<path d="M801,428.8c1-2.8,1.6-6,3.3-8.4c0.8-1.1,4.1-1.6,5.6-0.9c2.4,1.2,1.7,3.7-0.1,5.2c-2.3,1.9-5,3.4-7.5,5.1
		C801.9,429.5,801.4,429.2,801,428.8z"/>
	<path d="M811.3,446.6c2.8,0.8,5.9,1.1,8.2,2.6c1.2,0.8,1.1,3.6,1.5,5.6c-1.7,0.1-4,1-5,0.2c-2.3-1.8-4-4.4-6-6.6
		C810.5,447.7,810.9,447.2,811.3,446.6z"/>
	<path d="M792.5,453.6c0,2.7,0.3,5.4-0.1,8c-0.4,2.9-2.4,4.6-5.5,3.5c-2.9-1.1-2.4-3.7-1.2-5.6c1.5-2.4,3.6-4.4,5.5-6.5
		C791.7,453.1,792.1,453.4,792.5,453.6z"/>
	<path d="M791.5,429.6c-2.1-2.2-4.5-4.2-6-6.8c-0.7-1.2,0.7-3.5,1.2-5.3c1.7,0.7,4.4,1,4.8,2.2c1.1,2.8,1.1,6,1.6,9
		C792.6,429.1,792,429.4,791.5,429.6z"/>
</g>
</svg>
